<?xml version="1.0" encoding="UTF-8"?>
<svg id="Layer_1" data-name="Layer 1" xmlns="http://www.w3.org/2000/svg" viewBox="0 0 720.56 865.4">
  <rect y="9.76" width="360.22" height="359.98" style="fill: #f36c31;"/>
  <path d="M305.48,189.75c0-71.69-56.21-129.81-125.55-129.81V319.55c69.34,0,125.55-58.12,125.55-129.81Z" style="fill: #f4b51b;"/>
  <path d="M54.39,189.75c0-71.69,56.21-129.81,125.55-129.81V319.55c-69.34,0-125.55-58.12-125.55-129.81Z" style="fill: #212223;"/>
  <path d="M117.16,189.75c0,35.84,28.1,64.9,62.77,64.9V124.84c-34.67,0-62.77,29.06-62.77,64.9Z" style="fill: #f4b51b;"/>
  <path d="M242.71,189.75c0,35.84-28.1,64.9-62.77,64.9V124.84c34.67,0,62.77,29.06,62.77,64.9Z" style="fill: #212223;"/>
  <rect y="9.76" width="360.22" height="359.98" style="fill: #f36c31;"/>
  <path d="M305.48,189.75c0-71.69-56.21-129.81-125.55-129.81V319.55c69.34,0,125.55-58.12,125.55-129.81Z" style="fill: #f4b51b;"/>
  <path d="M54.39,189.75c0-71.69,56.21-129.81,125.55-129.81V319.55c-69.34,0-125.55-58.12-125.55-129.81Z" style="fill: #212223;"/>
  <path d="M117.16,189.75c0,35.84,28.1,64.9,62.77,64.9V124.84c-34.67,0-62.77,29.06-62.77,64.9Z" style="fill: #f4b51b;"/>
  <path d="M242.71,189.75c0,35.84-28.1,64.9-62.77,64.9V124.84c34.67,0,62.77,29.06,62.77,64.9Z" style="fill: #212223;"/>
  <rect y="9.76" width="360.22" height="359.98" style="fill: #f36c31;"/>
  <path d="M305.48,189.75c0-71.69-56.21-129.81-125.55-129.81V319.55c69.34,0,125.55-58.12,125.55-129.81Z" style="fill: #f4b51b;"/>
  <path d="M54.39,189.75c0-71.69,56.21-129.81,125.55-129.81V319.55c-69.34,0-125.55-58.12-125.55-129.81Z" style="fill: #212223;"/>
  <path d="M117.16,189.75c0,35.84,28.1,64.9,62.77,64.9V124.84c-34.67,0-62.77,29.06-62.77,64.9Z" style="fill: #f4b51b;"/>
  <path d="M242.71,189.75c0,35.84-28.1,64.9-62.77,64.9V124.84c34.67,0,62.77,29.06,62.77,64.9Z" style="fill: #212223;"/>
  <rect width="360.22" height="359.98" style="fill: #f36c31;"/>
  <path d="M305.48,179.99c0-71.69-56.21-129.81-125.55-129.81V309.8c69.34,0,125.55-58.12,125.55-129.81Z" style="fill: #f4b51b;"/>
  <path d="M54.39,179.99c0-71.69,56.21-129.81,125.55-129.81V309.8c-69.34,0-125.55-58.12-125.55-129.81Z" style="fill: #212223;"/>
  <path d="M117.16,179.99c0,35.84,28.1,64.9,62.77,64.9V115.09c-34.67,0-62.77,29.06-62.77,64.9Z" style="fill: #f4b51b;"/>
  <path d="M242.71,179.99c0,35.84-28.1,64.9-62.77,64.9V115.09c34.67,0,62.77,29.06,62.77,64.9Z" style="fill: #212223;"/>
  <rect x="360.35" y="505.42" width="360.22" height="359.98" style="fill: #2f1123;"/>
  <path d="M665.83,685.41c0-71.69-56.21-129.81-125.55-129.81v259.61c69.34,0,125.55-58.12,125.55-129.81Z" style="fill: #9e1f63;"/>
  <path d="M414.73,685.41c0-71.69,56.21-129.81,125.55-129.81v259.61c-69.34,0-125.55-58.12-125.55-129.81Z" style="fill: #231f20;"/>
  <path d="M477.51,685.41c0,35.84,28.1,64.9,62.77,64.9v-129.81c-34.67,0-62.77,29.06-62.77,64.9Z" style="fill: #9e1f63;"/>
  <path d="M603.06,685.41c0,35.84-28.1,64.9-62.77,64.9v-129.81c34.67,0,62.77,29.06,62.77,64.9Z" style="fill: #231f20;"/>
</svg>